<svg width="250" height="45" viewBox="0 0 250 45" fill="none" xmlns="http://www.w3.org/2000/svg">
<g clip-path="url(#clip0_1474_25620)">
<path d="M10.5808 18.0451V16.8464C10.1701 16.7916 9.75263 16.7573 9.32146 16.7573C4.18166 16.7505 0 20.9357 0 26.0866C0 29.2444 1.57411 32.039 3.98318 33.7309C2.4296 32.0664 1.47829 29.8266 1.47829 27.3744C1.47829 22.2988 5.5436 18.1615 10.5808 18.0451Z" fill="#25F4EE"/>
<path d="M10.8068 31.635C13.0995 31.635 14.9747 29.8061 15.0569 27.532L15.0637 7.20889H18.7731C18.6979 6.79106 18.6568 6.35952 18.6568 5.92114H13.5923L13.5854 26.2443C13.5033 28.5184 11.628 30.3472 9.33532 30.3472C8.62355 30.3472 7.95285 30.1691 7.35742 29.854C8.12394 30.9295 9.38323 31.635 10.8068 31.635Z" fill="#25F4EE"/>
<path d="M25.7057 14.1064V12.9762C24.289 12.9762 22.9749 12.5583 21.8662 11.8323C22.8517 12.9625 24.1863 13.7844 25.7057 14.1064Z" fill="#25F4EE"/>
<path d="M21.8664 11.8323C20.7851 10.5925 20.1349 8.97597 20.1349 7.20874H18.7798C19.1288 9.14036 20.2786 10.798 21.8664 11.8323Z" fill="#FE2C55"/>
<path d="M9.32872 21.8191C6.98124 21.8191 5.07178 23.7302 5.07178 26.0797C5.07178 27.7167 6.00256 29.1415 7.35766 29.8538C6.85121 29.1552 6.55007 28.299 6.55007 27.3674C6.55007 25.0179 8.45953 23.1069 10.807 23.1069C11.245 23.1069 11.6693 23.1822 12.0663 23.3055V18.1271C11.6557 18.0723 11.2382 18.0381 10.807 18.0381C10.7317 18.0381 10.6633 18.0449 10.588 18.0449V22.0178C10.1842 21.8945 9.76673 21.8191 9.32872 21.8191Z" fill="#FE2C55"/>
<path d="M25.7061 14.1064V18.045C23.078 18.045 20.6416 17.2025 18.6568 15.7778V26.0866C18.6568 31.2307 14.4752 35.4228 9.32853 35.4228C7.34378 35.4228 5.49591 34.7926 3.9834 33.7309C5.68754 35.5598 8.11715 36.7105 10.8068 36.7105C15.9466 36.7105 20.1351 32.5253 20.1351 27.3743V17.0655C22.1199 18.4903 24.5563 19.3328 27.1844 19.3328V14.264C26.6711 14.264 26.1783 14.2092 25.7061 14.1064Z" fill="#FE2C55"/>
<path d="M18.6568 26.0866V15.7777C20.6416 17.2025 23.078 18.045 25.7061 18.045V14.1064C24.1868 13.7845 22.8522 12.9625 21.8667 11.8323C20.2789 10.798 19.1359 9.14036 18.7732 7.20874H15.0638L15.0569 27.5319C14.9748 29.806 13.0995 31.6348 10.8068 31.6348C9.38328 31.6348 8.13084 30.9293 7.35063 29.8608C5.99553 29.1415 5.06475 27.7236 5.06475 26.0866C5.06475 23.7371 6.97421 21.826 9.32169 21.826C9.7597 21.826 10.184 21.9014 10.581 22.0247V18.0518C5.54382 18.1614 1.47852 22.2987 1.47852 27.3743C1.47852 29.8265 2.42983 32.0595 3.9834 33.7308C5.49592 34.7925 7.34378 35.4227 9.32853 35.4227C14.4683 35.4227 18.6568 31.2307 18.6568 26.0866Z" fill="white"/>
<path d="M32.1938 14.1201H48.0239L46.573 18.6546H42.4666V35.4159H37.3473V18.6546L32.2007 18.6615L32.1938 14.1201Z" fill="white"/>
<path d="M73.9629 14.1201H90.1625L88.7116 18.6546H84.2425V35.4159H79.1164V18.6546L73.9697 18.6615L73.9629 14.1201Z" fill="white"/>
<path d="M48.9961 20.8945H54.0675V35.4159H49.0235L48.9961 20.8945Z" fill="white"/>
<path d="M56.0864 14.0654H61.1578V23.9838L66.1813 19.0452H72.2313L65.8733 25.2168L72.991 35.416H67.4063L62.6566 28.3471L61.151 29.8061V35.416H56.0796V14.0654H56.0864Z" fill="white"/>
<path d="M109.811 14.0654H114.882V23.9838L119.906 19.0452H125.956L119.598 25.2168L126.716 35.416H121.138L116.388 28.3471L114.882 29.8061V35.416H109.811V14.0654Z" fill="white"/>
<path d="M51.5279 19.2368C52.9378 19.2368 54.0807 18.093 54.0807 16.6819C54.0807 15.2708 52.9378 14.127 51.5279 14.127C50.118 14.127 48.9751 15.2708 48.9751 16.6819C48.9751 18.093 50.118 19.2368 51.5279 19.2368Z" fill="white"/>
<path d="M89.5124 26.7238C89.5124 22.155 93.0371 18.4082 97.5199 18.0589C97.294 18.0383 96.986 18.0315 96.7602 18.0315C91.9626 18.0315 88.0752 21.9221 88.0752 26.7238C88.0752 31.5254 91.9626 35.4161 96.7602 35.4161C96.986 35.4161 97.294 35.4024 97.5199 35.3887C93.0439 35.0393 89.5124 31.2925 89.5124 26.7238Z" fill="#25F4EE"/>
<path d="M99.4906 18.0315C99.2579 18.0315 98.95 18.0452 98.7241 18.0589C103.2 18.4082 106.725 22.155 106.725 26.7238C106.725 31.2925 103.2 35.0393 98.7241 35.3887C98.95 35.4092 99.2579 35.4161 99.4906 35.4161C104.288 35.4161 108.176 31.5254 108.176 26.7238C108.176 21.9221 104.288 18.0315 99.4906 18.0315Z" fill="#FE2C55"/>
<path d="M98.122 30.9501C95.7882 30.9501 93.8993 29.0595 93.8993 26.7238C93.8993 24.388 95.7882 22.4975 98.122 22.4975C100.456 22.4975 102.345 24.388 102.345 26.7238C102.345 29.0595 100.449 30.9501 98.122 30.9501ZM98.122 18.0315C93.3244 18.0315 89.437 21.9221 89.437 26.7238C89.437 31.5254 93.3244 35.4161 98.122 35.4161C102.92 35.4161 106.807 31.5254 106.807 26.7238C106.807 21.9221 102.92 18.0315 98.122 18.0315Z" fill="white"/>
<rect x="133.5" y="14" width="60" height="21" rx="4" fill="#25F4EE"/>
<rect x="189.5" y="14" width="60" height="21" rx="4" fill="#FE2C55"/>
<rect x="135" y="14" width="113" height="21" rx="4" fill="white"/>
<path d="M145.091 19.1341H145.58V17.1455H144.667C142.499 17.1455 141.326 18.4495 141.326 20.7315V21.2042H139.891V22.8505H141.326V28.8H143.461V22.8505H145.124V21.2042H143.461V20.7152C143.477 19.8024 143.868 19.1341 145.091 19.1341ZM149.605 28.9467C151.773 28.9467 153.697 27.3819 153.697 24.9858C153.697 22.5734 151.773 21.0086 149.605 21.0086C147.438 21.0086 145.514 22.5734 145.514 24.9858C145.514 27.3819 147.438 28.9467 149.605 28.9467ZM149.605 26.9581C148.546 26.9581 147.682 26.1594 147.682 24.9858C147.682 23.7959 148.546 22.9972 149.605 22.9972C150.665 22.9972 151.529 23.7959 151.529 24.9858C151.529 26.1594 150.665 26.9581 149.605 26.9581ZM159.348 21.0086C158.402 21.0086 157.538 21.5465 157.114 22.8179V21.2042H154.995V28.8H157.131V26.192C157.131 24.0241 157.881 23.0135 158.973 23.0135C159.233 23.0135 159.608 23.0461 160.065 23.2906L160.554 21.2531C160.211 21.0738 159.755 21.0086 159.348 21.0086ZM170.122 17.1455V22.117C169.584 21.3509 168.557 21.0249 167.677 21.0249C165.721 21.0249 163.945 22.5408 163.945 24.9858C163.945 27.4308 165.721 28.9467 167.677 28.9467C168.525 28.9467 169.584 28.6044 170.122 27.8546V28.8H172.258V17.1455H170.122ZM168.085 26.9581C167.009 26.9581 166.112 26.0942 166.112 24.9858C166.112 23.8611 167.009 23.0298 168.085 23.0298C169.079 23.0298 170.057 23.8122 170.057 24.9858C170.057 26.1431 169.128 26.9581 168.085 26.9581ZM181.561 24.8717C181.561 22.5408 179.784 21.0086 177.616 21.0086C175.432 21.0086 173.574 22.5408 173.574 25.0021C173.574 27.3493 175.285 28.9467 177.616 28.9467C178.953 28.9467 180.289 28.4251 181.007 27.4634L179.752 26.2083C179.295 26.7462 178.529 27.0559 177.763 27.0559C176.736 27.0559 176.019 26.5669 175.791 25.6867H181.528C181.545 25.3444 181.561 25.0836 181.561 24.8717ZM175.791 24.3012C176.019 23.2743 176.785 22.8668 177.649 22.8668C178.611 22.8668 179.36 23.4047 179.426 24.3012H175.791ZM187.645 21.2042L185.819 26.0616L183.961 21.2042H181.646L184.857 28.8H186.764L189.975 21.2042H187.645ZM198.082 24.8717C198.082 22.5408 196.305 21.0086 194.137 21.0086C191.953 21.0086 190.095 22.5408 190.095 25.0021C190.095 27.3493 191.806 28.9467 194.137 28.9467C195.474 28.9467 196.81 28.4251 197.527 27.4634L196.272 26.2083C195.816 26.7462 195.05 27.0559 194.284 27.0559C193.257 27.0559 192.54 26.5669 192.311 25.6867H198.049C198.065 25.3444 198.082 25.0836 198.082 24.8717ZM192.311 24.3012C192.54 23.2743 193.306 22.8668 194.17 22.8668C195.131 22.8668 195.881 23.4047 195.946 24.3012H192.311ZM199.353 28.8H201.488V17.1455H199.353V28.8ZM206.87 28.9467C209.038 28.9467 210.961 27.3819 210.961 24.9858C210.961 22.5734 209.038 21.0086 206.87 21.0086C204.702 21.0086 202.779 22.5734 202.779 24.9858C202.779 27.3819 204.702 28.9467 206.87 28.9467ZM206.87 26.9581C205.811 26.9581 204.947 26.1594 204.947 24.9858C204.947 23.7959 205.811 22.9972 206.87 22.9972C207.93 22.9972 208.794 23.7959 208.794 24.9858C208.794 26.1594 207.93 26.9581 206.87 26.9581ZM216.84 21.0086C215.977 21.0086 214.933 21.3509 214.395 22.117V21.2042H212.26V32.5327H214.395V27.8546C214.933 28.6207 215.977 28.9467 216.84 28.9467C218.796 28.9467 220.573 27.4308 220.573 24.9858C220.573 22.5408 218.796 21.0086 216.84 21.0086ZM216.433 26.9418C215.439 26.9418 214.461 26.1594 214.461 24.9858C214.461 23.8285 215.39 23.0135 216.433 23.0135C217.509 23.0135 218.389 23.8774 218.389 24.9858C218.389 26.1105 217.509 26.9418 216.433 26.9418ZM229.42 24.8717C229.42 22.5408 227.643 21.0086 225.475 21.0086C223.291 21.0086 221.433 22.5408 221.433 25.0021C221.433 27.3493 223.145 28.9467 225.475 28.9467C226.812 28.9467 228.149 28.4251 228.866 27.4634L227.611 26.2083C227.154 26.7462 226.388 27.0559 225.622 27.0559C224.595 27.0559 223.878 26.5669 223.65 25.6867H229.387C229.404 25.3444 229.42 25.0836 229.42 24.8717ZM223.65 24.3012C223.878 23.2743 224.644 22.8668 225.508 22.8668C226.47 22.8668 227.22 23.4047 227.285 24.3012H223.65ZM235.043 21.0086C234.098 21.0086 233.234 21.5465 232.81 22.8179V21.2042H230.691V28.8H232.826V26.192C232.826 24.0241 233.576 23.0135 234.668 23.0135C234.929 23.0135 235.304 23.0461 235.76 23.2906L236.249 21.2531C235.907 21.0738 235.451 21.0086 235.043 21.0086ZM239.604 28.9467C241.168 28.9467 242.798 28.1643 242.798 26.5669C242.798 25.9475 242.57 24.8065 240.745 24.3175L239.489 23.9915C239.066 23.8774 238.74 23.6981 238.74 23.3395C238.74 22.9483 239.131 22.7038 239.62 22.7038C240.125 22.7038 240.549 22.9809 240.549 23.4862H242.586C242.603 21.6932 240.973 21.0086 239.587 21.0086C237.827 21.0086 236.604 22.1007 236.604 23.2743C236.604 24.073 236.865 25.1651 238.821 25.6867L239.832 25.9312C240.402 26.0779 240.663 26.2409 240.663 26.5669C240.663 27.007 240.19 27.2678 239.571 27.2678C238.821 27.2678 238.446 26.7951 238.446 26.355H236.441C236.458 28.0339 238.006 28.9467 239.604 28.9467Z" fill="black"/>
</g>
<defs>
<clipPath id="clip0_1474_25620">
<rect width="249.5" height="45" fill="white"/>
</clipPath>
</defs>
</svg>
